<svg xmlns="http://www.w3.org/2000/svg" width="360" height="96" viewBox="0 0 360 96" role="img" aria-label="CIA Ferias">
  <rect width="360" height="96" rx="18" fill="#FFFFFF"/>
  <rect x="18" y="18" width="60" height="60" rx="14" fill="#0B4DBA"/>
  <path d="M32 51c0-13 8-23 19-23 8 0 14 4 17 11l-11 4c-1-3-4-5-7-5-5 0-8 5-8 13s3 13 9 13c3 0 6-2 8-6l10 3c-3 8-10 13-18 13-11 0-19-10-19-23z" fill="#FFFFFF"/>
  <text x="96" y="43" fill="#17324D" font-family="Arial, Helvetica, sans-serif" font-size="22" font-weight="700">CIA FERIAS</text>
  <text x="96" y="65" fill="#4D6175" font-family="Arial, Helvetica, sans-serif" font-size="13">Gestao de ferias e ausencias</text>
</svg>
