<svg xmlns="http://www.w3.org/2000/svg" width="720" height="220" viewBox="0 0 720 220" role="img" aria-label="CIA Ferias">
  <rect width="720" height="220" rx="28" fill="#F4F8FF"/>
  <circle cx="112" cy="110" r="62" fill="#0B4DBA"/>
  <path d="M77 116c0-32 20-56 46-56 18 0 33 10 40 26l-25 9c-3-8-9-12-16-12-12 0-20 13-20 32s8 31 21 31c8 0 14-5 17-14l25 8c-7 19-23 31-43 31-26 0-45-23-45-55z" fill="#FFFFFF"/>
  <path d="M77 55h83l-12 20H89z" fill="#75C7F0"/>
  <path d="M69 154h92v14H69z" fill="#75C7F0"/>
  <text x="208" y="103" fill="#17324D" font-family="Arial, Helvetica, sans-serif" font-size="42" font-weight="700">CIA FERIAS</text>
  <text x="210" y="139" fill="#4D6175" font-family="Arial, Helvetica, sans-serif" font-size="20">Gestao de ferias simples, clara e confiavel</text>
  <path d="M210 158h270" stroke="#75C7F0" stroke-width="6" stroke-linecap="round"/>
</svg>
